<svg width="88" height="25" viewBox="0 0 88 25" fill="none" xmlns="http://www.w3.org/2000/svg">
<path d="M3.04369 24.5242H27.3932C29.0672 24.5242 30.4216 23.1545 30.4216 21.4805V15.3931C28.7476 15.3931 27.3932 14.0235 27.3932 12.3494C27.3932 10.6754 28.7476 9.30575 30.4369 9.30575V3.21837C30.4369 1.54964 29.0759 0.183353 27.409 0.174728H3.02781C1.36101 0.183353 0 1.54964 0 3.21837V9.30575C1.68925 9.30575 3.04369 10.6754 3.04369 12.3494C3.04369 14.0235 1.68925 15.3931 0.0152195 15.3931V21.4805C0.0152195 23.1545 1.36966 24.5242 3.04369 24.5242Z" fill="#00A060"/>
<path d="M31.8353 24.5242H56.1848C57.8588 24.5242 59.2133 23.1545 59.2133 21.4805V15.3931C57.5392 15.3931 56.1848 14.0235 56.1848 12.3494C56.1848 10.6754 57.5392 9.30575 59.2285 9.30575V3.21837C59.2285 1.54964 57.8675 0.183353 56.2007 0.174728H31.8194C30.1526 0.183353 28.7916 1.54964 28.7916 3.21837V9.30575C30.4809 9.30575 31.8353 10.6754 31.8353 12.3494C31.8353 14.0235 30.4809 15.3931 28.8068 15.3931V21.4805C28.8068 23.1545 30.1613 24.5242 31.8353 24.5242Z" fill="#1683F2"/>
<path d="M60.6269 24.5242H84.9764C86.6505 24.5242 88.0049 23.1545 88.0049 21.4805V15.3931C86.3309 15.3931 84.9764 14.0235 84.9764 12.3494C84.9764 10.6754 86.3309 9.30575 88.0201 9.30575V3.21837C88.0201 1.54964 86.6591 0.183353 84.9923 0.174728H60.6111C58.9443 0.183353 57.5833 1.54964 57.5833 3.21837V9.30575C59.2725 9.30575 60.6269 10.6754 60.6269 12.3494C60.6269 14.0235 59.2725 15.3931 57.5985 15.3931V21.4805C57.5985 23.1545 58.9529 24.5242 60.6269 24.5242Z" fill="#FF8000"/>
<path d="M33.7273 12.514C33.7273 15.2399 31.5175 17.4497 28.7916 17.4497C26.0657 17.4497 23.8559 15.2399 23.8559 12.514C23.8559 9.78808 26.0657 7.57829 28.7916 7.57829C31.5175 7.57829 33.7273 9.78808 33.7273 12.514Z" fill="#181818"/>
<path d="M62.519 12.514C62.519 15.2399 60.3092 17.4497 57.5833 17.4497C54.8573 17.4497 52.6475 15.2399 52.6475 12.514C52.6475 9.78808 54.8573 7.57829 57.5833 7.57829C60.3092 7.57829 62.519 9.78808 62.519 12.514Z" fill="#181818"/>
</svg>
